<?xml version="1.0" encoding="utf-8"?>
<svg xmlns="http://www.w3.org/2000/svg" width="14.8307in" height="2.53817in" version="1.1" style="shape-rendering:geometricPrecision; text-rendering:geometricPrecision; image-rendering:optimizeQuality; fill-rule:evenodd; clip-rule:evenodd" viewBox="706.76 3330.789 4225.519 2706.738">
  <defs>
    <style type="text/css">
   
    .fil7 {fill:url(#id0)}
    .fil3 {fill:url(#id1)}
    .fil1 {fill:url(#id2)}
    .fil0 {fill:url(#id3)}
    .fil6 {fill:url(#id4)}
    .fil8 {fill:url(#id5)}
    .fil4 {fill:url(#id6)}
    .fil2 {fill:url(#id7)}
    .fil5 {fill:url(#id8)}
   
  </style>
    <linearGradient id="id1" gradientUnits="userSpaceOnUse" x1="-6.67" y1="912.74" x2="4810.04" y2="912.74">
      <stop offset="0" style="stop-opacity:1; stop-color:#E7CB6A"/>
      <stop offset="0.1294" style="stop-opacity:1; stop-color:#B67D2E"/>
      <stop offset="0.3294" style="stop-opacity:1; stop-color:#E7CB6A"/>
      <stop offset="0.4784" style="stop-opacity:1; stop-color:#B67D2E"/>
      <stop offset="0.5412" style="stop-opacity:1; stop-color:#E7CB6A"/>
      <stop offset="0.6118" style="stop-opacity:1; stop-color:#BF893F"/>
      <stop offset="0.7098" style="stop-opacity:1; stop-color:#E7CB6A"/>
      <stop offset="0.8" style="stop-opacity:1; stop-color:#B67D2E"/>
      <stop offset="0.8392" style="stop-opacity:1; stop-color:#E7CB6A"/>
      <stop offset="0.9804" style="stop-opacity:1; stop-color:#BF893F"/>
      <stop offset="1" style="stop-opacity:1; stop-color:#E7CB6A"/>
    </linearGradient>
    <linearGradient id="id2" gradientUnits="userSpaceOnUse" x1="-6.67" y1="912.74" x2="4810.04" y2="912.74">
      <stop offset="0" style="stop-opacity:1; stop-color:#E7CB6A"/>
      <stop offset="0.1294" style="stop-opacity:1; stop-color:#B67D2E"/>
      <stop offset="0.3294" style="stop-opacity:1; stop-color:#E7CB6A"/>
      <stop offset="0.4784" style="stop-opacity:1; stop-color:#B67D2E"/>
      <stop offset="0.5412" style="stop-opacity:1; stop-color:#B67D2E"/>
      <stop offset="0.6118" style="stop-opacity:1; stop-color:#E7CB6A"/>
      <stop offset="0.7098" style="stop-opacity:1; stop-color:#E7CB6A"/>
      <stop offset="0.8" style="stop-opacity:1; stop-color:#B67D2E"/>
      <stop offset="0.8392" style="stop-opacity:1; stop-color:#E7CB6A"/>
      <stop offset="0.9804" style="stop-opacity:1; stop-color:#BF893F"/>
      <stop offset="1" style="stop-opacity:1; stop-color:#E7CB6A"/>
    </linearGradient>
    <linearGradient id="id3" gradientUnits="userSpaceOnUse" x1="-6.67" y1="912.74" x2="4810.04" y2="912.74" href="#id1"/>
    <linearGradient id="id6" gradientUnits="userSpaceOnUse" x1="-6.67" y1="912.74" x2="4810.04" y2="912.74" href="#id1"/>
    <linearGradient id="id7" gradientUnits="userSpaceOnUse" x1="-6.67" y1="912.74" x2="4810.04" y2="912.74" href="#id1"/>
  </defs>
  <g id="Layer_x0020_1" style="" transform="matrix(1, 0, 0, 1.088801, 691.722128, 3518.759382)">
    <polygon class="fil0" points="3678.99,387.1 3678.99,2253.17 4135.28,2253.17 4135.28,0 3915.28,194.59 "/>
    <polygon class="fil1" points="2548.6,2253.17 2548.6,380.77 1773.74,380.77 2173.35,0 3953.83,0 3502.1,380.77 3004.9,380.77 3004.9,2253.17 "/>
    <path class="fil2" d="M2003.62 0.28l-764.65 0c-74.46,0 -206.23,14.71 -318.98,55.4 -79.02,28.51 -146.69,69.51 -184.64,101.32 -8.3,6.96 -11.82,12.19 -20.16,19.1 -9.61,7.96 -12.36,7.9 -21.95,17.34 -26.11,25.72 -78.69,92.66 -98.01,124.24 -6.05,9.9 -7.95,15.65 -13.57,25.59 -5.89,10.43 -9.85,14.57 -14.59,24.6 -26.93,57.14 -61.52,155.65 -61.52,238.11l0 0c0,101.58 3.25,214.47 44.55,306.78 107.07,239.35 283.87,383.02 551.98,423.59 144.29,12.49 181.71,3.68 260.2,34.79 120.7,47.86 201.41,102.67 201.41,232.38 0,177.55 -116.6,282.77 -297.73,282.77l-841.81 0 -424.16 363.87 1305.52 -1.59c124.16,0 291.48,-69.26 379,-146.14l41.91 -36.63c8.57,-7.89 8.88,-9.79 16,-18.87 7.66,-9.79 11.06,-11.82 19.06,-20.2 11.33,-11.86 22.5,-28.21 32.5,-41.57 64.19,-85.71 117.96,-219.93 117.96,-338.36 0,-97.06 -4.15,-174.91 -44.01,-264.02 -50.05,-111.88 -114.01,-200.8 -214.58,-273.48 -77.38,-55.92 -147.06,-71.86 -242.44,-90.73 -187.8,-37.15 -352.82,16.82 -486.55,-160.87 -154.49,-205.3 -6.84,-475.82 264.15,-475.82l417.1 0 397.98 -381.62z"/>
    <path class="fil3" d="M3332.42 1920.28c79.45,0 143.86,71.56 143.86,159.84 0,88.28 -64.41,159.85 -143.86,159.85 -79.45,0 -143.86,-71.57 -143.86,-159.85 0,-88.28 64.41,-159.84 143.86,-159.84l0 0z"/>
    <path class="fil4" d="M2185.72 1920.28c79.45,0 143.86,71.56 143.86,159.84 0,88.28 -64.41,159.85 -143.86,159.85 -79.45,0 -143.86,-71.57 -143.86,-159.85 0,-88.28 64.41,-159.84 143.86,-159.84l0 0z"/>
  </g>
</svg>