<?xml version="1.0" encoding="UTF-8"?>
<!DOCTYPE svg PUBLIC "-//W3C//DTD SVG 1.1//EN" "http://www.w3.org/Graphics/SVG/1.1/DTD/svg11.dtd">
<!-- Creator: CorelDRAW 2020 (Evaluation Version) -->
<svg xmlns="http://www.w3.org/2000/svg" xml:space="preserve" width="14.8307in" height="2.53817in" version="1.1" style="shape-rendering:geometricPrecision; text-rendering:geometricPrecision; image-rendering:optimizeQuality; fill-rule:evenodd; clip-rule:evenodd"
viewBox="0 0 14841.95 2540.09"
 xmlns:xlink="http://www.w3.org/1999/xlink"
 xmlns:xodm="http://www.corel.com/coreldraw/odm/2003">
 <defs>
  <style type="text/css">
   <![CDATA[
    .fil7 {fill:url(#id0)}
    .fil3 {fill:url(#id1)}
    .fil1 {fill:url(#id2)}
    .fil0 {fill:url(#id3)}
    .fil6 {fill:url(#id4)}
    .fil8 {fill:url(#id5)}
    .fil4 {fill:url(#id6)}
    .fil2 {fill:url(#id7)}
    .fil5 {fill:url(#id8)}
   ]]>
  </style>
  <linearGradient id="id0" gradientUnits="userSpaceOnUse" x1="5412.86" y1="188.72" x2="14742.85" y2="251.27">
   <stop offset="0" style="stop-opacity:1; stop-color:#9C5E06"/>
   <stop offset="0.0313725" style="stop-opacity:1; stop-color:#DCCF73"/>
   <stop offset="0.0509804" style="stop-opacity:1; stop-color:#D3AE7A"/>
   <stop offset="0.0784314" style="stop-opacity:1; stop-color:#B67D2E"/>
   <stop offset="0.109804" style="stop-opacity:1; stop-color:#DCCF73"/>
   <stop offset="0.129412" style="stop-opacity:1; stop-color:#BF893F"/>
   <stop offset="0.168627" style="stop-opacity:1; stop-color:#BF893F"/>
   <stop offset="0.188235" style="stop-opacity:1; stop-color:#FDD669"/>
   <stop offset="0.211765" style="stop-opacity:1; stop-color:#D6C468"/>
   <stop offset="0.239216" style="stop-opacity:1; stop-color:#B67D2E"/>
   <stop offset="0.258824" style="stop-opacity:1; stop-color:#F0AB54"/>
   <stop offset="0.278431" style="stop-opacity:1; stop-color:#D6C468"/>
   <stop offset="0.329412" style="stop-opacity:1; stop-color:#B67D2E"/>
   <stop offset="0.34902" style="stop-opacity:1; stop-color:#D6C468"/>
   <stop offset="0.388235" style="stop-opacity:1; stop-color:#B67D2E"/>
   <stop offset="0.439216" style="stop-opacity:1; stop-color:#DCCF73"/>
   <stop offset="0.478431" style="stop-opacity:1; stop-color:#B67D2E"/>
   <stop offset="0.521569" style="stop-opacity:1; stop-color:#FDD669"/>
   <stop offset="0.560784" style="stop-opacity:1; stop-color:#BF893F"/>
   <stop offset="0.6" style="stop-opacity:1; stop-color:#DCCF73"/>
   <stop offset="0.639216" style="stop-opacity:1; stop-color:#B67D2E"/>
   <stop offset="0.670588" style="stop-opacity:1; stop-color:#DCCF73"/>
   <stop offset="0.709804" style="stop-opacity:1; stop-color:#9C5E06"/>
   <stop offset="0.729412" style="stop-opacity:1; stop-color:#D6C468"/>
   <stop offset="0.760784" style="stop-opacity:1; stop-color:#B67D2E"/>
   <stop offset="0.788235" style="stop-opacity:1; stop-color:#DCCF73"/>
   <stop offset="0.819608" style="stop-opacity:1; stop-color:#B67D2E"/>
   <stop offset="0.839216" style="stop-opacity:1; stop-color:#9C5E06"/>
   <stop offset="0.870588" style="stop-opacity:1; stop-color:#FDD669"/>
   <stop offset="0.909804" style="stop-opacity:1; stop-color:#9C5E06"/>
   <stop offset="0.929412" style="stop-opacity:1; stop-color:#D6C468"/>
   <stop offset="0.968627" style="stop-opacity:1; stop-color:#9C5E06"/>
   <stop offset="1" style="stop-opacity:1; stop-color:#FDD669"/>
  </linearGradient>
  <linearGradient id="id1" gradientUnits="userSpaceOnUse" x1="-6.67" y1="912.74" x2="4810.04" y2="912.74">
   <stop offset="0" style="stop-opacity:1; stop-color:#E7CB6A"/>
   <stop offset="0.129412" style="stop-opacity:1; stop-color:#B67D2E"/>
   <stop offset="0.329412" style="stop-opacity:1; stop-color:#E7CB6A"/>
   <stop offset="0.478431" style="stop-opacity:1; stop-color:#B67D2E"/>
   <stop offset="0.541176" style="stop-opacity:1; stop-color:#E7CB6A"/>
   <stop offset="0.611765" style="stop-opacity:1; stop-color:#BF893F"/>
   <stop offset="0.709804" style="stop-opacity:1; stop-color:#E7CB6A"/>
   <stop offset="0.8" style="stop-opacity:1; stop-color:#B67D2E"/>
   <stop offset="0.839216" style="stop-opacity:1; stop-color:#E7CB6A"/>
   <stop offset="0.980392" style="stop-opacity:1; stop-color:#BF893F"/>
   <stop offset="1" style="stop-opacity:1; stop-color:#E7CB6A"/>
  </linearGradient>
  <linearGradient id="id2" gradientUnits="userSpaceOnUse" x1="-6.67" y1="912.74" x2="4810.04" y2="912.74">
   <stop offset="0" style="stop-opacity:1; stop-color:#E7CB6A"/>
   <stop offset="0.129412" style="stop-opacity:1; stop-color:#B67D2E"/>
   <stop offset="0.329412" style="stop-opacity:1; stop-color:#E7CB6A"/>
   <stop offset="0.478431" style="stop-opacity:1; stop-color:#B67D2E"/>
   <stop offset="0.541176" style="stop-opacity:1; stop-color:#B67D2E"/>
   <stop offset="0.611765" style="stop-opacity:1; stop-color:#E7CB6A"/>
   <stop offset="0.709804" style="stop-opacity:1; stop-color:#E7CB6A"/>
   <stop offset="0.8" style="stop-opacity:1; stop-color:#B67D2E"/>
   <stop offset="0.839216" style="stop-opacity:1; stop-color:#E7CB6A"/>
   <stop offset="0.980392" style="stop-opacity:1; stop-color:#BF893F"/>
   <stop offset="1" style="stop-opacity:1; stop-color:#E7CB6A"/>
  </linearGradient>
  <linearGradient id="id3" gradientUnits="userSpaceOnUse" xlink:href="#id1" x1="-6.67" y1="912.74" x2="4810.04" y2="912.74">
  </linearGradient>
  <linearGradient id="id4" gradientUnits="userSpaceOnUse" x1="5412.86" y1="188.72" x2="14686.84" y2="238.07">
   <stop offset="0" style="stop-opacity:1; stop-color:#9C5E06"/>
   <stop offset="0.0313725" style="stop-opacity:1; stop-color:#DCCF73"/>
   <stop offset="0.0509804" style="stop-opacity:1; stop-color:#D3AE7A"/>
   <stop offset="0.0784314" style="stop-opacity:1; stop-color:#B67D2E"/>
   <stop offset="0.109804" style="stop-opacity:1; stop-color:#DCCF73"/>
   <stop offset="0.129412" style="stop-opacity:1; stop-color:#BF893F"/>
   <stop offset="0.168627" style="stop-opacity:1; stop-color:#BF893F"/>
   <stop offset="0.188235" style="stop-opacity:1; stop-color:#FDD669"/>
   <stop offset="0.211765" style="stop-opacity:1; stop-color:#D6C468"/>
   <stop offset="0.239216" style="stop-opacity:1; stop-color:#B67D2E"/>
   <stop offset="0.258824" style="stop-opacity:1; stop-color:#F0AB54"/>
   <stop offset="0.278431" style="stop-opacity:1; stop-color:#D6C468"/>
   <stop offset="0.329412" style="stop-opacity:1; stop-color:#B67D2E"/>
   <stop offset="0.34902" style="stop-opacity:1; stop-color:#D6C468"/>
   <stop offset="0.388235" style="stop-opacity:1; stop-color:#B67D2E"/>
   <stop offset="0.439216" style="stop-opacity:1; stop-color:#DCCF73"/>
   <stop offset="0.478431" style="stop-opacity:1; stop-color:#B67D2E"/>
   <stop offset="0.521569" style="stop-opacity:1; stop-color:#FDD669"/>
   <stop offset="0.560784" style="stop-opacity:1; stop-color:#BF893F"/>
   <stop offset="0.6" style="stop-opacity:1; stop-color:#DCCF73"/>
   <stop offset="0.639216" style="stop-opacity:1; stop-color:#B67D2E"/>
   <stop offset="0.670588" style="stop-opacity:1; stop-color:#DCCF73"/>
   <stop offset="0.709804" style="stop-opacity:1; stop-color:#9C5E06"/>
   <stop offset="0.729412" style="stop-opacity:1; stop-color:#D6C468"/>
   <stop offset="0.760784" style="stop-opacity:1; stop-color:#B67D2E"/>
   <stop offset="0.788235" style="stop-opacity:1; stop-color:#DCCF73"/>
   <stop offset="0.819608" style="stop-opacity:1; stop-color:#B67D2E"/>
   <stop offset="0.839216" style="stop-opacity:1; stop-color:#9C5E06"/>
   <stop offset="0.870588" style="stop-opacity:1; stop-color:#FDD669"/>
   <stop offset="0.909804" style="stop-opacity:1; stop-color:#9C5E06"/>
   <stop offset="0.929412" style="stop-opacity:1; stop-color:#D6C468"/>
   <stop offset="0.968627" style="stop-opacity:1; stop-color:#9C5E06"/>
   <stop offset="0.980392" style="stop-opacity:1; stop-color:#FDD669"/>
   <stop offset="1" style="stop-opacity:1; stop-color:#D6C468"/>
  </linearGradient>
  <linearGradient id="id5" gradientUnits="userSpaceOnUse" x1="-350.54" y1="2498.67" x2="14841.95" y2="2487.69">
   <stop offset="0" style="stop-opacity:1; stop-color:#B67D2E"/>
   <stop offset="0.0313725" style="stop-opacity:1; stop-color:#E7CB6A"/>
   <stop offset="0.34902" style="stop-opacity:1; stop-color:#B67D2E"/>
   <stop offset="0.768627" style="stop-opacity:1; stop-color:#E7CB6A"/>
   <stop offset="1" style="stop-opacity:1; stop-color:#B67D2E"/>
  </linearGradient>
  <linearGradient id="id6" gradientUnits="userSpaceOnUse" xlink:href="#id1" x1="-6.67" y1="912.74" x2="4810.04" y2="912.74">
  </linearGradient>
  <linearGradient id="id7" gradientUnits="userSpaceOnUse" xlink:href="#id1" x1="-6.67" y1="912.74" x2="4810.04" y2="912.74">
  </linearGradient>
  <linearGradient id="id8" gradientUnits="userSpaceOnUse" xlink:href="#id1" x1="-6.67" y1="912.74" x2="4810.04" y2="912.74">
  </linearGradient>
 </defs>
 <g id="Layer_x0020_1">
  <metadata id="CorelCorpID_0Corel-Layer"/>
  <polygon class="fil0" points="3678.99,387.1 3678.99,2253.17 4135.28,2253.17 4135.28,0 3915.28,194.59 "/>
  <polygon class="fil1" points="2548.6,2253.17 2548.6,380.77 1773.74,380.77 2173.35,0 3953.83,0 3502.1,380.77 3004.9,380.77 3004.9,2253.17 "/>
  <path class="fil2" d="M2003.62 0.28l-764.65 0c-74.46,0 -206.23,14.71 -318.98,55.4 -79.02,28.51 -146.69,69.51 -184.64,101.32 -8.3,6.96 -11.82,12.19 -20.16,19.1 -9.61,7.96 -12.36,7.9 -21.95,17.34 -26.11,25.72 -78.69,92.66 -98.01,124.24 -6.05,9.9 -7.95,15.65 -13.57,25.59 -5.89,10.43 -9.85,14.57 -14.59,24.6 -26.93,57.14 -61.52,155.65 -61.52,238.11l0 0c0,101.58 3.25,214.47 44.55,306.78 107.07,239.35 283.87,383.02 551.98,423.59 144.29,12.49 181.71,3.68 260.2,34.79 120.7,47.86 201.41,102.67 201.41,232.38 0,177.55 -116.6,282.77 -297.73,282.77l-841.81 0 -424.16 363.87 1305.52 -1.59c124.16,0 291.48,-69.26 379,-146.14l41.91 -36.63c8.57,-7.89 8.88,-9.79 16,-18.87 7.66,-9.79 11.06,-11.82 19.06,-20.2 11.33,-11.86 22.5,-28.21 32.5,-41.57 64.19,-85.71 117.96,-219.93 117.96,-338.36 0,-97.06 -4.15,-174.91 -44.01,-264.02 -50.05,-111.88 -114.01,-200.8 -214.58,-273.48 -77.38,-55.92 -147.06,-71.86 -242.44,-90.73 -187.8,-37.15 -352.82,16.82 -486.55,-160.87 -154.49,-205.3 -6.84,-475.82 264.15,-475.82l417.1 0 397.98 -381.62z"/>
  <path class="fil3" d="M3332.42 1920.28c79.45,0 143.86,71.56 143.86,159.84 0,88.28 -64.41,159.85 -143.86,159.85 -79.45,0 -143.86,-71.57 -143.86,-159.85 0,-88.28 64.41,-159.84 143.86,-159.84l0 0z"/>
  <path class="fil4" d="M2185.72 1920.28c79.45,0 143.86,71.56 143.86,159.84 0,88.28 -64.41,159.85 -143.86,159.85 -79.45,0 -143.86,-71.57 -143.86,-159.85 0,-88.28 64.41,-159.84 143.86,-159.84l0 0z"/>
  <polygon class="fil5" points="4810.07,3.89 4698.82,3.89 4698.82,2262.56 4810.07,2262.56 "/>
  <path class="fil6" d="M5934.91 293.14l-121.29 22.5c5.18,-24.3 7.65,-44.55 7.65,-60.98 0,-105.08 -63.46,-157.52 -190.14,-157.52 -100.14,0 -150.09,36 -150.09,108.24 0,54 56.03,100.36 167.87,139.06 215.8,74.26 323.58,184.3 323.58,329.89 0,85.28 -30.38,153.69 -90.91,205.44 -60.75,51.53 -141.31,77.41 -241.9,77.41 -222.77,0 -334.16,-86.18 -334.16,-258.78 0,-13.95 1.35,-31.28 3.83,-51.98l125.79 -27.68c-9.9,38.26 -14.85,71.34 -14.85,99.46 0,111.61 63.91,167.41 191.94,167.41 102.38,0 153.69,-40.27 153.69,-120.61 0,-59.86 -61.2,-112.51 -183.84,-157.75 -177.09,-65.03 -265.75,-168.99 -265.75,-311.88 0,-81 29.48,-146.04 88.66,-195.54 59.18,-49.51 136.81,-74.26 233.12,-74.26 197.8,0 296.81,89.11 296.81,267.56zm139.96 647.84l0 -900.54c71.11,0 151.22,-4.73 240.33,-13.96l0 364.32c51.98,-87.76 125.11,-131.64 219.84,-131.64 111.84,0 167.64,50.18 167.64,150.76l0 531.06 -240.32 0 0 -504.73c0,-38.93 -12.82,-58.28 -38.48,-58.28 -26.55,0 -51.31,24.53 -74.26,73.81 -22.95,49.06 -34.43,101.94 -34.43,158.42l0 330.79 -240.33 0zm1433.4 -23.63c-58.73,22.95 -116.11,34.43 -171.92,34.43 -82.59,0 -133.44,-25.88 -152.79,-77.41 -40.05,53.33 -97.43,80.11 -172.59,80.11 -140.19,0 -210.4,-65.03 -210.4,-195.1 0,-98.78 64.13,-168.31 192.17,-208.14 117.69,-36.91 176.42,-81.46 176.42,-133.22 0,-68.18 -33.75,-102.16 -101.49,-102.16 -78.08,0 -117.23,33.08 -117.23,99.01 0,20.7 6.3,47.93 18.9,81.91l-119.26 -22.96c-3.38,-20.7 -4.95,-40.05 -4.95,-58.05 0,-105.31 96.31,-157.97 288.7,-157.97 182.95,0 274.31,49.06 274.31,147.4l0 403.24c0,41.63 13.5,62.33 40.28,62.33 8.33,0 20.7,-4.72 36.9,-14.18l22.95 60.75zm-340.46 -375.79c-15.07,17.1 -32.4,31.5 -52.2,42.98 -49.73,29.03 -74.71,77.63 -74.71,146.26 0,87.99 17.1,131.86 51.53,131.86 50.18,0 75.38,-43.43 75.38,-130.51l0 -190.6zm382.54 399.42l0 -900.54c71.11,0 151.22,-4.73 240.33,-13.96l0 364.32c51.98,-87.76 125.11,-131.64 219.84,-131.64 111.84,0 167.64,50.18 167.64,150.76l0 531.06 -240.32 0 0 -504.73c0,-38.93 -12.82,-58.28 -38.48,-58.28 -26.55,0 -51.31,24.53 -74.26,73.81 -22.95,49.06 -34.43,101.94 -34.43,158.42l0 330.79 -240.33 0zm1433.4 -23.63c-58.73,22.95 -116.11,34.43 -171.92,34.43 -82.59,0 -133.44,-25.88 -152.79,-77.41 -40.05,53.33 -97.43,80.11 -172.59,80.11 -140.19,0 -210.4,-65.03 -210.4,-195.1 0,-98.78 64.13,-168.31 192.17,-208.14 117.69,-36.91 176.42,-81.46 176.42,-133.22 0,-68.18 -33.75,-102.16 -101.49,-102.16 -78.08,0 -117.23,33.08 -117.23,99.01 0,20.7 6.3,47.93 18.9,81.91l-119.26 -22.96c-3.38,-20.7 -4.95,-40.05 -4.95,-58.05 0,-105.31 96.31,-157.97 288.7,-157.97 182.95,0 274.31,49.06 274.31,147.4l0 403.24c0,41.63 13.5,62.33 40.28,62.33 8.33,0 20.7,-4.72 36.9,-14.18l22.95 60.75zm-340.46 -375.79c-15.07,17.1 -32.4,31.5 -52.2,42.98 -49.73,29.03 -74.71,77.63 -74.71,146.26 0,87.99 17.1,131.86 51.53,131.86 50.18,0 75.38,-43.43 75.38,-130.51l0 -190.6zm382.54 399.42l0 -900.54c39.16,0 119.26,-4.73 240.33,-13.96l0 320.66c44.78,-58.73 94.73,-87.98 149.86,-87.98 157.52,0 236.28,109.13 236.28,327.18 0,246.4 -93.61,369.49 -281.06,369.49 -88.43,0 -163.82,-41.63 -226.15,-124.89l-59.41 110.04 -59.86 0zm315.71 -584.61c-52.88,0 -79.43,76.95 -79.43,230.65 0,181.15 25.87,271.6 77.41,271.6 45.23,0 67.73,-47.25 67.73,-141.76l4.72 -162.69 -5.4 -91.59c-6.98,-70.88 -28.58,-106.21 -65.03,-106.21zm1044.11 -96.99l0 681.6 -240.32 0 0 -105.99c-55.36,78.76 -126.69,118.14 -214,118.14 -117.46,0 -176.19,-56.93 -176.19,-171.02l0 -505.4c80.78,-3.61 160.89,-9.23 240.32,-17.33l0 516.88c0,44.1 13.73,66.15 41.18,66.15 72.46,0 108.69,-76.96 108.69,-230.87l0 -334.83c80.33,-3.61 160.44,-9.23 240.32,-17.33zm731.55 -232.9l0 914.5 -240.32 0 0 -57.39c-40.5,48.15 -94.51,72.24 -162.02,72.24 -149.41,0 -224.12,-114.76 -224.12,-344.06 0,-236.05 78.99,-353.96 237.18,-353.96 62.33,0 112.06,27.68 148.96,82.81l0 -300.18c72.46,0 152.57,-4.73 240.32,-13.96zm-311.43 328.54c-40.51,0 -60.76,37.13 -60.76,111.39l-4.5 141.09 2.47 128.49c0,81.68 22.95,122.64 68.63,122.64 44.33,0 66.61,-40.27 66.61,-120.61l2.7 -162.01 -4.72 -110.72c-6.98,-73.58 -30.6,-110.26 -70.43,-110.26zm1038.48 -328.54l0 914.5 -240.32 0 0 -57.39c-40.5,48.15 -94.51,72.24 -162.02,72.24 -149.41,0 -224.12,-114.76 -224.12,-344.06 0,-236.05 78.99,-353.96 237.18,-353.96 62.33,0 112.06,27.68 148.96,82.81l0 -300.18c72.46,0 152.57,-4.73 240.32,-13.96zm-311.43 328.54c-40.51,0 -60.76,37.13 -60.76,111.39l-4.5 141.09 2.47 128.49c0,81.68 22.95,122.64 68.63,122.64 44.33,0 66.61,-40.27 66.61,-120.61l2.7 -162.01 -4.72 -110.72c-6.98,-73.58 -30.6,-110.26 -70.43,-110.26zm567.28 -336.18c74.71,0 112.06,29.02 112.06,87.09 0,58.05 -37.36,87.08 -112.06,87.08 -74.71,0 -112.06,-29.03 -112.06,-87.08 0,-58.06 37.35,-87.09 112.06,-87.09zm-122.86 922.14l0 -663.59c75.16,0 155.27,-6.08 240.33,-18.01l0 681.6 -240.33 0zm1005.63 0l-240.33 0 0 -487.63c0,-50.18 -13.95,-75.38 -41.85,-75.38 -28.58,0 -53.11,19.8 -74.03,59.18 -20.93,39.6 -31.28,86.18 -31.28,139.96l0 363.86 -240.32 0 0 -665.62c82.58,0 162.69,-5.4 240.32,-16.43l0 124.44c59.86,-82.81 133.21,-124.21 219.62,-124.21 111.84,0 167.87,56.7 167.87,170.34l0 511.48z"/>
  <path class="fil7" d="M5925.04 1211.43l0 83.54 -203.23 0 0 748.1 -255.6 0 0 -748.1 -205.73 0 0 -83.54 664.56 0zm493.54 441.38l-152.32 0c5.2,-23.9 9.56,-41.56 13.51,-52.99 5.41,-16.63 8.1,-31.79 8.1,-45.09 0,-25.98 -9.14,-39.07 -27.64,-39.07 -14.13,0 -27.64,17.25 -40.31,51.54 -12.88,34.29 -19.33,70.44 -19.33,108.68l0 367.19 -221.94 0 0 -613.43 43.22 0c51.12,0 110.55,-5.41 178.71,-16l0 101.41c36.16,-67.74 80.21,-101.62 132.37,-101.62 71.28,0 107.02,39.48 107.02,118.45 0,20.78 -3.33,44.68 -10.18,71.48 -2.29,11.02 -6.02,27.43 -11.22,49.46zm711.94 368.44c-54.24,21.19 -107.23,31.79 -158.77,31.79 -76.26,0 -123.23,-23.9 -141.1,-71.48 -36.99,49.25 -89.98,73.98 -159.38,73.98 -129.46,0 -194.3,-60.06 -194.3,-180.17 0,-91.22 59.23,-155.44 177.47,-192.22 108.68,-34.08 162.92,-75.22 162.92,-123.02 0,-62.96 -31.17,-94.34 -93.72,-94.34 -72.11,0 -108.27,30.55 -108.27,91.43 0,19.12 5.82,44.27 17.46,75.65l-110.14 -21.2c-3.12,-19.11 -4.57,-36.98 -4.57,-53.62 0,-97.25 88.94,-145.87 266.61,-145.87 168.95,0 253.31,45.3 253.31,136.11l0 372.39c0,38.44 12.47,57.56 37.2,57.56 7.69,0 19.12,-4.36 34.08,-13.09l21.2 56.11zm-314.41 -347.04c-13.92,15.8 -29.92,29.09 -48.21,39.69 -45.92,26.81 -68.99,71.7 -68.99,135.08 0,81.25 15.79,121.77 47.59,121.77 46.34,0 69.61,-40.11 69.61,-120.53l0 -176.01zm470.47 -482.73c68.99,0 103.49,26.81 103.49,80.42 0,53.62 -34.49,80.42 -103.49,80.42 -68.99,0 -103.48,-26.8 -103.48,-80.42 0,-53.61 34.49,-80.42 103.48,-80.42zm-113.46 851.58l0 -612.81c69.41,0 143.38,-5.61 221.94,-16.63l0 629.44 -221.94 0zm928.68 0l-221.94 0 0 -450.31c0,-46.34 -12.88,-69.62 -38.65,-69.62 -26.39,0 -49.04,18.29 -68.37,54.66 -19.33,36.57 -28.88,79.59 -28.88,129.25l0 336.02 -221.94 0 0 -614.69c76.26,0 150.24,-4.98 221.94,-15.17l0 114.91c55.27,-76.47 123.02,-114.71 202.82,-114.71 103.28,0 155.02,52.37 155.02,157.31l0 472.34zm240.01 -851.58c68.99,0 103.49,26.81 103.49,80.42 0,53.62 -34.49,80.42 -103.49,80.42 -68.99,0 -103.48,-26.8 -103.48,-80.42 0,-53.61 34.49,-80.42 103.48,-80.42zm-113.46 851.58l0 -612.81c69.41,0 143.38,-5.61 221.94,-16.63l0 629.44 -221.94 0zm928.68 0l-221.94 0 0 -450.31c0,-46.34 -12.88,-69.62 -38.65,-69.62 -26.39,0 -49.04,18.29 -68.37,54.66 -19.33,36.57 -28.88,79.59 -28.88,129.25l0 336.02 -221.94 0 0 -614.69c76.26,0 150.24,-4.98 221.94,-15.17l0 114.91c55.27,-76.47 123.02,-114.71 202.82,-114.71 103.28,0 155.02,52.37 155.02,157.31l0 472.34zm524.5 -607.41c103.69,44.27 155.65,108.48 155.65,192.85 0,55.48 -25.98,103.07 -77.93,142.35 -52.16,39.27 -114.91,59.01 -188.48,59.01 -28.47,0 -66.7,-3.53 -115.12,-10.8 -27.43,16.21 -41.15,32.42 -41.15,48.62 0,22.24 17.25,33.25 51.74,33.25 8.73,0 26.8,-0.83 54.03,-2.29 68.37,-4.36 118.24,-6.44 149.41,-6.44 147.34,0 221.1,56.1 221.1,168.11 0,135.69 -122.4,203.44 -367.4,203.44 -182.24,0 -273.47,-38.44 -273.47,-115.12 0,-44.47 37.2,-74.4 111.38,-90.4 -78.34,-20.57 -117.62,-54.86 -117.62,-102.87 0,-59.64 46.76,-112.21 140.06,-157.52 -82.5,-33.25 -123.85,-89.77 -123.85,-169.77 0,-60.68 24.94,-111.8 75.02,-152.95 49.87,-41.14 111.8,-61.72 185.77,-61.72 25.15,0 58.19,2.5 99.33,7.69 -2.29,-14.34 -3.53,-25.56 -3.53,-33.67 0,-80.83 42.19,-121.15 126.35,-121.15 67.12,0 100.58,28.26 100.58,84.78 0,43.22 -20.16,64.84 -60.26,64.84 -13.3,0 -29.3,-4.37 -47.59,-13.3 -11.22,-5.61 -19.74,-8.73 -25.56,-9.14 -18.91,-1.25 -28.47,12.88 -28.47,42.18zm-136.94 37.62c-41.77,0 -62.76,51.54 -62.76,154.81 0,94.55 21.61,141.93 65.05,141.93 39.69,0 59.64,-41.98 59.64,-126.14 0,-113.66 -20.57,-170.61 -61.92,-170.61zm-6.44 609.7c-104.11,0 -156.06,20.16 -156.06,60.88 0,39.9 50.29,60.06 151.08,60.06 116.99,0 175.59,-22.45 175.59,-67.54 0,-35.53 -56.94,-53.4 -170.61,-53.4zm1036.53 -871.54l0 831.63 -240.64 0 0 -831.63 240.64 0zm715.06 831.63l-221.94 0 0 -450.31c0,-46.34 -12.88,-69.62 -38.65,-69.62 -26.39,0 -49.04,18.29 -68.37,54.66 -19.33,36.57 -28.88,79.59 -28.88,129.25l0 336.02 -221.94 0 0 -614.69c76.26,0 150.24,-4.98 221.94,-15.17l0 114.91c55.27,-76.47 123.02,-114.71 202.82,-114.71 103.28,0 155.02,52.37 155.02,157.31l0 472.34zm603.67 -455.71l-107.85 18.7c0,-91.85 -42.81,-137.77 -128.42,-137.77 -52.58,0 -78.76,21.61 -78.76,64.63 0,31.58 45.09,65.66 135.49,102.24 138.19,56.52 207.39,128.22 207.39,215.07 0,138.61 -87.9,207.8 -263.5,207.8 -185.99,0 -278.87,-69.2 -278.87,-207.8l114.5 -23.27c-1.46,13.51 -2.29,26.19 -2.29,38.03 0,35.74 14.96,66.92 44.68,93.52 29.92,26.39 65.04,39.69 105.56,39.69 53.62,0 80.42,-22.65 80.42,-68.17 0,-30.55 -43.22,-64.21 -129.88,-101.19 -130.29,-56.11 -195.54,-127.81 -195.54,-215.71 0,-57.98 24.94,-105.56 75.02,-142.76 49.87,-37.2 114.08,-55.69 192.43,-55.69 139.23,0 215.7,57.56 229.63,172.69zm446.78 -156.48l0 68.58 -98.5 0 0 434.52c0,27.02 8.73,40.52 26.19,40.52 12.47,0 19.95,-8.94 22.44,-27.01l63.38 6.02c-17.45,63.8 -73.15,95.8 -166.66,95.8 -111.59,0 -167.28,-47.38 -167.28,-142.14l0 -407.71 -73.56 0 0 -68.58 73.56 0 0 -108.27c76.68,-21.19 150.66,-51.74 221.94,-91.64l0 199.91 98.5 0zm186.81 -239.39c68.99,0 103.49,26.81 103.49,80.42 0,53.62 -34.49,80.42 -103.49,80.42 -68.99,0 -103.48,-26.8 -103.48,-80.42 0,-53.61 34.49,-80.42 103.48,-80.42zm-113.46 851.58l0 -612.81c69.41,0 143.38,-5.61 221.94,-16.63l0 629.44 -221.94 0zm679.31 -612.19l0 68.58 -98.5 0 0 434.52c0,27.02 8.73,40.52 26.19,40.52 12.47,0 19.95,-8.94 22.44,-27.01l63.38 6.02c-17.45,63.8 -73.15,95.8 -166.66,95.8 -111.59,0 -167.28,-47.38 -167.28,-142.14l0 -407.71 -73.56 0 0 -68.58 73.56 0 0 -108.27c76.68,-21.19 150.66,-51.74 221.94,-91.64l0 199.91 98.5 0zm654.38 -17.25l0 629.44 -221.94 0 0 -97.87c-51.12,72.73 -116.99,109.09 -197.62,109.09 -108.48,0 -162.71,-52.57 -162.71,-157.93l0 -466.72c74.6,-3.33 148.58,-8.52 221.94,-16l0 477.33c0,40.73 12.67,61.09 38.02,61.09 66.91,0 100.37,-71.07 100.37,-213.21l0 -309.21c74.19,-3.33 148.16,-8.52 221.94,-16zm456.13 17.25l0 68.58 -98.5 0 0 434.52c0,27.02 8.73,40.52 26.19,40.52 12.47,0 19.95,-8.94 22.44,-27.01l63.38 6.02c-17.45,63.8 -73.15,95.8 -166.66,95.8 -111.59,0 -167.28,-47.38 -167.28,-142.14l0 -407.71 -73.56 0 0 -68.58 73.56 0 0 -108.27c76.68,-21.19 150.66,-51.74 221.94,-91.64l0 199.91 98.5 0zm510.79 386.93l89.56 26.39c-9.35,141.72 -93.1,212.59 -251.03,212.59 -204.69,0 -307.13,-102.03 -307.13,-306.09 0,-99.13 27.22,-180.17 81.67,-243.55 54.44,-63.38 124.06,-94.97 209.05,-94.97 177.47,0 266.2,114.3 266.2,342.88l-323.97 0c0,161.25 40.94,241.88 122.6,241.88 76.26,0 114.5,-45.71 114.5,-136.94 0,-12.26 -0.42,-26.19 -1.45,-42.18zm-236.27 -131.33l132.79 0c0,-142.97 -21.4,-214.45 -64.42,-214.45 -39.07,0 -60.89,52.99 -65.87,158.97l-2.49 55.49z"/>
  <polygon class="fil8" points="14841.95,2374.19 1.65,2374.19 1.65,2540.09 14841.95,2540.09 "/>
 </g>
</svg>
